<?xml version="1.0" encoding="UTF-8" standalone="no"?>
<!DOCTYPE svg PUBLIC "-//W3C//DTD SVG 1.1//EN" "http://www.w3.org/Graphics/SVG/1.1/DTD/svg11.dtd">
<svg width="100%" height="100%" viewBox="0 0 945 945" version="1.1" xmlns="http://www.w3.org/2000/svg" xmlns:xlink="http://www.w3.org/1999/xlink" xml:space="preserve" xmlns:serif="http://www.serif.com/" style="fill-rule:evenodd;clip-rule:evenodd;stroke-linejoin:round;stroke-miterlimit:2;">
    <g transform="matrix(1,0,0,1,-118.11,-118.11)">
        <g>
            <g transform="matrix(0.917009,0,0,0.917009,50.9514,46.6813)">
                <path d="M1103.63,253.088C1103.63,206.624 1085.17,162.062 1052.32,129.207C1019.46,96.351 974.902,77.893 928.437,77.893L248.432,77.893C201.967,77.893 157.406,96.351 124.55,129.207C91.695,162.062 73.237,206.624 73.237,253.088L73.237,933.094C73.237,979.559 91.695,1024.12 124.55,1056.97C157.406,1089.83 201.967,1108.29 248.432,1108.29L928.437,1108.29C974.902,1108.29 1019.46,1089.83 1052.32,1056.97C1085.17,1024.12 1103.63,979.559 1103.63,933.094L1103.63,253.088Z" style="fill:rgb(253,252,239);"/>
            </g>
            <g transform="matrix(1.73055,0,0,1.73055,115.731,188.18)">
                <g>
                    <path d="M330,185L301.25,185C288.825,188.75 278.75,178.675 278.75,166.25C278.75,154.585 287.66,145.105 299.025,143.975C298.915,143.07 298.75,142.185 298.75,141.25C298.75,128.825 308.825,118.75 321.25,118.75C328.44,118.75 334.765,122.18 338.885,127.43C339.585,114.25 350.395,103.75 363.75,103.75C377.555,103.75 388.75,114.945 388.75,128.75C388.75,130.98 388.365,133.1 387.815,135.16C391.025,131.275 395.815,128.75 401.25,128.75C410.155,128.75 417.42,135.425 418.525,144.025C419.43,143.915 420.315,143.75 421.25,143.75C433.675,143.75 443.75,153.825 443.75,166.25C443.75,178.675 433.675,188.75 421.25,185L345,185L345,190L330,190L330,185Z" style="fill:rgb(253,252,239);fill-rule:nonzero;"/>
                    <path d="M362.5,100C377.665,100 390,112.335 390,127.5L390,127.735C393.01,125.96 396.45,125 400,125C409.155,125 417.055,131.305 419.29,140.025C419.525,140.01 419.76,140 420,140C435.495,140 447.745,154.17 444.465,170.235C442.065,181.99 431.02,190 419.02,190L345.625,190C344.245,190 343.125,188.88 343.125,187.5C343.125,186.12 344.245,185 345.625,185L419.215,185C428.815,185 437.65,178.59 439.57,169.185C442.195,156.335 432.395,145 420,145C419.415,145 418.85,145.085 418.285,145.16L417.58,145.255C417.475,145.27 417.375,145.275 417.27,145.275C416.04,145.275 414.96,144.35 414.795,143.09C413.84,135.625 407.48,130 400,130C395.575,130 391.385,132.005 388.495,135.5C388.005,136.09 387.29,136.41 386.565,136.41C386.175,136.41 385.785,136.32 385.425,136.13C384.38,135.595 383.855,134.4 384.155,133.265C384.955,130.265 385.165,127.92 384.89,125.52C383.69,114.885 375.095,105.975 364.43,105.08C351.675,104.005 340.805,113.72 340.135,126.31C340.08,127.35 339.385,128.245 338.39,128.56C338.14,128.64 337.885,128.68 337.63,128.68C336.88,128.68 336.15,128.335 335.67,127.72C331.81,122.815 326.105,120 320,120C308.97,120 300,128.97 300,140C300,140.585 300.085,141.15 300.16,141.715L300.255,142.42C300.335,143.09 300.145,143.76 299.725,144.285C299.305,144.81 298.69,145.145 298.025,145.21C286.265,146.38 277.815,157.355 280.505,169.535C282.545,178.8 291.375,185 300.865,185L330.625,185C332.005,185 333.125,186.12 333.125,187.5C333.125,188.88 332.005,190 330.625,190L300.935,190C288.6,190 277.395,181.48 275.36,169.31C273.05,155.495 282.08,143.21 295.015,140.61C295.005,140.41 295,140.205 295,140C295,126.215 306.215,115 320,115C325.88,115 331.465,117.08 335.915,120.82C338.905,108.8 349.725,100 362.5,100Z" style="fill:rgb(71,43,41);fill-rule:nonzero;"/>
                    <path d="M371.25,136.25C378.265,136.25 384.295,141.245 385.815,147.955C387.65,146.845 389.745,146.25 391.875,146.25C397.885,146.25 402.865,150.735 403.64,156.59C404.655,156.365 405.62,156.25 406.565,156.25C414.21,156.25 420.62,162.25 421.155,169.91C421.2,170.6 420.685,171.195 419.995,171.245L419.905,171.245C419.255,171.245 418.705,170.74 418.66,170.085C418.215,163.73 412.905,158.745 406.565,158.745C405.42,158.745 404.215,158.955 402.875,159.38C402.765,159.415 402.65,159.43 402.54,159.43C402.265,159.43 401.99,159.33 401.76,159.16C401.44,158.925 401.25,158.515 401.25,158.115C401.25,152.945 397.045,148.74 391.875,148.74C389.64,148.74 387.45,149.58 385.72,151.105C385.485,151.31 385.19,151.42 384.895,151.42C384.735,151.42 384.58,151.39 384.43,151.325C383.99,151.15 383.69,150.74 383.655,150.265C383.145,143.805 377.7,138.74 371.26,138.74C370.22,138.74 369.135,138.91 367.85,139.275C367.735,139.31 367.615,139.325 367.5,139.325C366.955,139.325 366.465,138.96 366.305,138.415C366.115,137.75 366.5,137.06 367.165,136.87C368.665,136.45 369.97,136.25 371.25,136.25Z" style="fill:rgb(71,43,41);"/>
                </g>
                <g>
                    <path d="M301.835,143.75C308.465,143.75 314.375,148.235 316.205,154.66C316.395,155.325 316.01,156.015 315.345,156.205C315.23,156.24 315.115,156.255 315.005,156.255C314.46,156.255 313.96,155.895 313.805,155.345C312.28,149.99 307.36,146.255 301.84,146.255C301.255,146.255 300.69,146.325 300.13,146.4C300.07,146.41 300.015,146.415 299.955,146.415C299.35,146.415 298.81,145.955 298.725,145.33C298.63,144.645 299.11,144.015 299.795,143.925C300.46,143.83 301.14,143.75 301.835,143.75Z" style="fill:rgb(71,43,41);"/>
                    <path d="M167.5,365L142.5,365C141.12,365 140,363.88 140,362.5C140,361.12 141.12,360 142.5,360L167.5,360C168.88,360 170,361.12 170,362.5C170,363.88 168.88,365 167.5,365Z" style="fill:rgb(71,43,41);"/>
                    <path d="M377.5,365L202.5,365C201.12,365 200,363.88 200,362.5C200,361.12 201.12,360 202.5,360L377.5,360C378.88,360 380,361.12 380,362.5C380,363.88 378.88,365 377.5,365Z" style="fill:rgb(71,43,41);fill-rule:nonzero;"/>
                    <path d="M192.5,365L177.5,365C176.12,365 175,363.88 175,362.5C175,361.12 176.12,360 177.5,360L192.5,360C193.88,360 195,361.12 195,362.5C195,363.88 193.88,365 192.5,365Z" style="fill:rgb(71,43,41);fill-rule:nonzero;"/>
                    <path d="M227.85,361.5C235.17,352.35 238.5,342.895 238.5,331.67L238.5,258.5L281.5,258.5L281.5,330.83C281.5,342.72 284.74,352.24 292.145,361.5L227.85,361.5Z" style="fill:rgb(187,122,84);"/>
                    <path d="M278,262L278,330.835C278,341.025 280.345,349.795 285.415,358.005L234.64,358.005C239.67,349.94 242,341.44 242,331.67L242,262L278,262M285,255L235,255L235,331.665C235,345 230,355 220,365L300,365C290,355 285,345 285,330.835L285,255Z" style="fill:rgb(71,43,41);fill-rule:nonzero;"/>
                    <path d="M249.67,301.5C234.13,301.5 219.87,294.415 210.55,282.05L209.255,280.33L207.135,280.715C204.71,281.15 202.335,281.37 200.09,281.37C187.745,281.37 178.735,274.755 174.725,262.74L173.925,260.345L171.395,260.345C155.985,260.345 143.505,248.075 143.505,232.99C143.505,222.51 149.75,212.82 159.425,208.3L162.28,206.965L161.245,203.98C159.875,200.015 159.175,195.93 159.175,191.845C159.175,171.09 176.345,154.205 197.45,154.205L200.95,154.205L200.95,150.705C200.95,138.46 211.09,128.495 223.555,128.495C229.425,128.495 235,130.725 239.26,134.78L241.3,136.73L243.635,135.145C250.045,130.8 257.55,128.5 265.335,128.5C276.765,128.5 287.51,133.47 294.815,142.135L296.85,144.55L299.46,142.77C303.275,140.165 307.725,138.79 312.335,138.79C324.8,138.79 334.94,148.755 334.94,161C334.94,162.9 334.62,164.865 333.925,167.19L332.915,170.59L336.325,171.555C357.04,177.45 371.5,196.37 371.5,217.57C371.5,238.625 357.165,257.51 336.635,263.505L334.61,264.095L334.19,266.165C330.62,283.66 314.84,296.355 296.665,296.355C291.115,296.355 285.705,295.175 280.585,292.835L278.8,292.02L277.175,293.12C269.05,298.605 259.535,301.5 249.67,301.5Z" style="fill:rgb(96,190,146);"/>
                    <path d="M265.335,132C275.725,132 285.495,136.515 292.135,144.39L296.215,149.225L301.44,145.655C304.665,143.45 308.435,142.285 312.34,142.285C322.88,142.285 331.45,150.68 331.45,161C331.45,162.54 331.17,164.19 330.575,166.195L328.555,172.985L335.37,174.925C354.585,180.39 368.005,197.93 368.005,217.57C368.005,237.08 354.705,254.59 335.665,260.14L331.61,261.325L330.765,265.465C327.525,281.335 313.19,292.86 296.67,292.86C291.615,292.86 286.695,291.78 282.045,289.655L278.475,288.025L275.22,290.22C267.67,295.31 258.835,298.005 249.67,298.005C235.235,298.005 222,291.425 213.35,279.95L210.76,276.51L206.52,277.275C204.295,277.675 202.135,277.88 200.09,277.88C186.35,277.88 180.52,269.05 178.045,261.64L176.45,256.855L171.17,256.855C157.825,256.77 147,246.1 147,233C147,223.87 152.455,215.425 160.895,211.48L166.615,208.805L164.55,202.845C163.3,199.245 162.67,195.55 162.67,191.855C162.67,173.03 178.27,157.71 197.45,157.71L204.45,157.71L204.45,150.71C204.45,140.39 213.025,131.995 223.56,131.995C228.525,131.995 233.245,133.885 236.85,137.315L240.935,141.2L245.6,138.035C251.43,134.09 258.255,132 265.335,132M265.335,125C256.545,125 248.4,127.685 241.675,132.25C236.975,127.78 230.605,125 223.56,125C209.14,125 197.45,136.515 197.45,150.715C174.375,150.715 155.67,169.135 155.67,191.86C155.67,196.515 156.49,200.97 157.935,205.14C147.34,210.09 140,220.69 140,233C140,250.04 154.03,263.855 171.335,263.855L171.405,263.855C175.8,277.015 185.945,284.875 200.09,284.875C202.53,284.875 205.09,284.64 207.76,284.16C217.27,296.785 232.475,305 249.665,305C260.6,305 270.74,301.675 279.13,296.02C284.47,298.46 290.395,299.855 296.665,299.855C316.905,299.855 333.775,285.68 337.615,266.86C359.225,260.56 375,240.895 375,217.57C375,194.13 359.06,174.39 337.28,168.195C337.965,165.9 338.445,163.515 338.445,161.005C338.445,146.805 326.755,135.29 312.335,135.29C306.81,135.29 301.705,137 297.49,139.88C289.825,130.79 278.265,125 265.335,125Z" style="fill:rgb(71,43,41);fill-rule:nonzero;"/>
                    <path d="M229.725,274.565C227.325,272.62 224.92,270.28 222.5,267.5" style="fill:rgb(96,190,146);"/>
                    <path d="M229.72,277.065C229.165,277.065 228.605,276.885 228.15,276.51C225.615,274.455 223.08,271.98 220.615,269.14C219.705,268.1 219.82,266.52 220.86,265.615C221.9,264.705 223.48,264.815 224.385,265.86C226.665,268.475 228.99,270.755 231.295,272.625C232.37,273.495 232.535,275.07 231.665,276.14C231.17,276.75 230.45,277.065 229.72,277.065Z" style="fill:rgb(71,43,41);fill-rule:nonzero;"/>
                    <path d="M245.765,282.145C242.655,281.645 239.545,280.635 236.435,279.015" style="fill:rgb(96,190,146);"/>
                    <path d="M245.765,284.645C245.635,284.645 245.495,284.635 245.365,284.615C241.925,284.065 238.525,282.925 235.275,281.23C234.05,280.595 233.57,279.08 234.21,277.86C234.85,276.63 236.38,276.165 237.58,276.795C240.395,278.26 243.2,279.2 246.155,279.67C247.515,279.89 248.445,281.175 248.23,282.535C248.03,283.77 246.975,284.645 245.765,284.645Z" style="fill:rgb(71,43,41);fill-rule:nonzero;"/>
                    <path d="M317.86,259.61C312.145,274.59 298.535,281.495 276.67,273.75C268.91,278.285 261.335,281.575 253.815,282.345" style="fill:rgb(96,190,146);"/>
                    <path d="M253.81,284.85C252.545,284.85 251.46,283.895 251.33,282.605C251.19,281.235 252.185,280.005 253.56,279.865C259.93,279.21 266.87,276.585 275.405,271.595C276.04,271.23 276.8,271.155 277.5,271.395C296.625,278.19 309.775,273.795 315.525,258.72C316.02,257.43 317.455,256.785 318.755,257.28C320.045,257.77 320.69,259.215 320.195,260.51C313.615,277.74 297.89,283.535 276.93,276.49C268.205,281.48 260.92,284.135 254.07,284.84C253.985,284.845 253.895,284.85 253.81,284.85Z" style="fill:rgb(71,43,41);fill-rule:nonzero;"/>
                    <path d="M351.195,223.4C349.42,234.98 341.34,246.54 320.42,249.17" style="fill:rgb(96,190,146);"/>
                    <path d="M320.41,251.665C319.17,251.665 318.09,250.74 317.935,249.475C317.765,248.105 318.735,246.855 320.105,246.68C341.17,244.04 347.295,232.355 348.725,223.02C348.935,221.655 350.245,220.735 351.57,220.925C352.935,221.135 353.875,222.41 353.665,223.77C352.285,232.81 346.165,248.45 320.73,251.64C320.62,251.66 320.52,251.665 320.41,251.665Z" style="fill:rgb(71,43,41);fill-rule:nonzero;"/>
                    <path d="M345.415,198.54C347.845,201.03 350.14,206.11 351.11,212.135" style="fill:rgb(96,190,146);"/>
                    <path d="M351.105,214.64C349.9,214.64 348.84,213.765 348.64,212.535C347.635,206.255 345.31,202.015 343.63,200.29C342.665,199.3 342.685,197.715 343.67,196.755C344.665,195.785 346.25,195.815 347.205,196.795C350.14,199.805 352.58,205.53 353.58,211.745C353.795,213.105 352.865,214.39 351.505,214.61C351.37,214.63 351.235,214.64 351.105,214.64Z" style="fill:rgb(71,43,41);fill-rule:nonzero;"/>
                    <path d="M195.82,231.125C204.505,238.99 218.06,242.865 235.955,231.705" style="fill:rgb(96,190,146);"/>
                    <path d="M214.795,241.15C205.165,241.15 198.23,236.67 194.14,232.975C193.12,232.045 193.04,230.465 193.965,229.44C194.905,228.425 196.485,228.355 197.5,229.265C204.49,235.615 216.62,240.8 234.635,229.58C235.8,228.855 237.345,229.2 238.075,230.375C238.805,231.545 238.45,233.09 237.28,233.815C228.645,239.21 221.135,241.15 214.795,241.15Z" style="fill:rgb(71,43,41);fill-rule:nonzero;"/>
                    <path d="M271.825,200.015C262.88,200.015 253.43,196.63 246.485,186.84" style="fill:rgb(96,190,146);"/>
                    <path d="M271.82,202.515C263.935,202.51 252.78,200.04 244.44,188.285C243.645,187.16 243.91,185.6 245.035,184.8C246.16,184.01 247.715,184.27 248.52,185.395C255.62,195.405 265.105,197.51 271.815,197.515C273.195,197.515 274.315,198.64 274.315,200.015C274.32,201.395 273.205,202.515 271.82,202.515Z" style="fill:rgb(71,43,41);fill-rule:nonzero;"/>
                    <path d="M297.27,189.84C295.02,192.825 290.005,196.09 283.76,198.095" style="fill:rgb(96,190,146);"/>
                    <path d="M283.76,200.595C282.7,200.595 281.72,199.92 281.38,198.86C280.955,197.54 281.68,196.135 282.99,195.715C289.54,193.61 293.7,190.42 295.27,188.33C296.105,187.22 297.675,187.015 298.77,187.835C299.875,188.665 300.095,190.23 299.265,191.335C296.575,194.91 290.925,198.41 284.525,200.465C284.27,200.555 284.015,200.595 283.76,200.595Z" style="fill:rgb(71,43,41);fill-rule:nonzero;"/>
                    <path d="M273.125,361.46C272.24,361.46 271.385,360.99 270.935,360.16C264.64,348.65 264.99,333.09 265,332.43L265,328.94C265,327.56 266.12,326.44 267.5,326.44C268.88,326.44 270,327.56 270,328.94L270,332.5C269.995,332.715 269.685,347.455 275.315,357.76C275.98,358.97 275.535,360.495 274.325,361.155C273.945,361.36 273.53,361.46 273.125,361.46Z" style="fill:rgb(71,43,41);fill-rule:nonzero;"/>
                    <path d="M247.495,365.02C247.085,365.02 246.675,364.92 246.295,364.71C245.085,364.05 244.64,362.525 245.305,361.315C247.075,358.08 248.44,354.07 249.37,349.395C249.64,348.04 250.975,347.13 252.305,347.425C253.66,347.695 254.54,349.005 254.275,350.36C253.255,355.535 251.71,360.03 249.695,363.715C249.235,364.55 248.38,365.02 247.495,365.02Z" style="fill:rgb(71,43,41);fill-rule:nonzero;"/>
                    <path d="M252.935,344.02C252.87,344.02 252.81,344.02 252.74,344.015C251.365,343.91 250.335,342.705 250.435,341.33C250.67,338.24 250.625,336.19 250.62,336.13C250.585,334.75 251.675,333.6 253.05,333.565C253.075,333.565 253.1,333.56 253.12,333.56C254.47,333.56 255.58,334.635 255.62,335.99C255.62,335.99 255.685,338.26 255.425,341.71C255.32,343.02 254.23,344.02 252.935,344.02Z" style="fill:rgb(71,43,41);fill-rule:nonzero;"/>
                    <path d="M267.5,322.29C266.12,322.29 265,321.17 265,319.79L265,312.5C265,311.12 266.12,310 267.5,310C268.88,310 270,311.12 270,312.5L270,319.79C270,321.17 268.88,322.29 267.5,322.29Z" style="fill:rgb(71,43,41);fill-rule:nonzero;"/>
                    <path d="M186.25,200L181.25,200C179.87,200 178.75,201.12 178.75,202.5C178.75,203.88 179.87,205 181.25,205L186.25,205C187.63,205 188.75,203.88 188.75,202.5C188.75,201.12 187.63,200 186.25,200Z" style="fill:rgb(71,43,41);fill-rule:nonzero;"/>
                </g>
                <g>
                    <path d="M196.25,202.5L213.75,202.5C223.415,202.5 231.25,194.665 231.25,185C231.25,176.095 224.575,168.83 215.975,167.725C216.115,166.83 216.25,165.935 216.25,165C216.25,155.335 208.415,147.5 198.75,147.5C193.59,147.5 189,149.775 185.8,153.325C183.88,144.285 175.865,137.5 166.25,137.5C155.205,137.5 146.25,146.455 146.25,157.5C146.25,158.455 146.4,159.37 146.53,160.29C144.39,158.57 141.705,157.5 138.75,157.5C132.61,157.5 127.525,161.935 126.475,167.775C125.58,167.635 124.685,167.5 123.75,167.5C114.085,167.5 106.25,175.335 106.25,185C106.25,194.665 114.085,202.5 123.75,202.5L161.25,202.5L161.25,205L196.25,205L196.25,202.5Z" style="fill:rgb(253,252,239);fill-rule:nonzero;"/>
                    <path d="M205,180C204.31,180 203.75,179.44 203.75,178.75C203.75,172.635 208.725,167.66 214.84,167.66C215.01,167.705 218.525,167.655 221.06,168.34C221.725,168.52 222.12,169.205 221.94,169.87C221.76,170.54 221.075,170.935 220.41,170.75C218.19,170.15 214.91,170.15 214.845,170.16C210.105,170.16 206.25,174.015 206.25,178.75C206.25,179.44 205.69,180 205,180ZM171.25,200C169.879,200 168.75,201.129 168.75,202.5C168.75,203.871 169.879,205 171.25,205C172.621,205 173.75,203.871 173.75,202.5C173.75,201.129 172.621,200 171.25,200Z" style="fill:rgb(71,43,41);fill-rule:nonzero;"/>
                    <path d="M213.75,205L196.25,205C194.87,205 193.75,203.88 193.75,202.5C193.75,201.12 194.87,200 196.25,200L213.75,200C222.02,200 228.75,193.27 228.75,185C228.75,177.52 223.125,171.16 215.66,170.205C214.99,170.115 214.385,169.765 213.98,169.225C213.575,168.685 213.405,168.005 213.51,167.34C213.625,166.57 213.75,165.8 213.75,165C213.75,156.73 207.02,150 198.75,150C194.5,150 190.56,151.775 187.655,155C187.03,155.695 186.05,155.99 185.155,155.74C184.245,155.495 183.55,154.765 183.355,153.845C181.65,145.825 174.455,140 166.25,140C156.6,140 148.75,147.85 148.75,157.5C148.75,158.215 148.855,158.9 148.955,159.59C149.1,160.605 148.64,161.78 147.745,162.29C146.85,162.8 145.765,162.88 144.965,162.24C143.14,160.775 140.995,160 138.75,160C133.92,160 129.79,163.455 128.935,168.22C128.695,169.555 127.455,170.45 126.09,170.245C125.32,170.125 124.55,170 123.75,170C115.48,170 108.75,176.73 108.75,185C108.75,193.27 115.48,200 123.75,200L161.25,200C162.63,200 163.75,201.12 163.75,202.5C163.75,203.88 162.63,205 161.25,205L123.75,205C112.72,205 103.75,196.03 103.75,185C103.75,173.97 112.72,165 123.75,165C124.045,165 124.33,165.01 124.62,165.03C126.69,159.1 132.305,155 138.75,155C140.495,155 142.195,155.305 143.805,155.9C144.63,144.235 154.38,135 166.25,135C175.405,135 183.58,140.635 187.015,148.87C190.415,146.38 194.525,145 198.75,145C209.78,145 218.75,153.97 218.75,165C218.75,165.24 218.745,165.475 218.73,165.71C227.445,167.95 233.75,175.845 233.75,185C233.75,196.03 224.78,205 213.75,205Z" style="fill:rgb(71,43,41);fill-rule:nonzero;"/>
                </g>
            </g>
        </g>
    </g>
</svg>
